<svg xmlns="http://www.w3.org/2000/svg" xmlns:xlink="http://www.w3.org/1999/xlink" version="1.1" x="0px" y="0px" viewBox="0 0 100 125" style="enable-background:new 0 0 100 100;" xml:space="preserve"><path d="M92,47c-0.136,0-0.266,0.022-0.396,0.04L84.4,34.437C85.984,33.152,87,31.193,87,29c0-3.86-3.141-7-7-7  c-3.52,0-6.433,2.613-6.92,6H62.92c-0.487-3.387-3.4-6-6.92-6c-0.951,0-1.857,0.192-2.685,0.537L46.18,10.049  C46.685,9.512,47,8.794,47,8c0-1.654-1.346-3-3-3c-1.302,0-2.401,0.838-2.816,2H22.816C22.401,5.838,21.302,5,20,5  c-1.654,0-3,1.346-3,3c0,0.791,0.313,1.506,0.815,2.042L8.404,26.041C8.271,26.022,8.139,26,8,26c-1.654,0-3,1.346-3,3s1.346,3,3,3  c0.136,0,0.266-0.022,0.397-0.04l7.202,12.604C14.016,45.848,13,47.807,13,50c0,0.261,0.017,0.518,0.045,0.771  c-0.062,0.258-0.019,0.524,0.127,0.755c0.589,2.637,2.666,4.713,5.302,5.303C18.637,56.93,18.814,57,19,57  c0.078,0,0.153-0.026,0.229-0.045C19.482,56.983,19.739,57,20,57c3.52,0,6.433-2.613,6.92-6H37c0,0.186,0.07,0.363,0.172,0.525  c0.59,2.637,2.666,4.713,5.303,5.303C42.637,56.93,42.814,57,43,57c0.078,0,0.153-0.026,0.229-0.045C43.482,56.983,43.739,57,44,57  c0.943,0,1.842-0.189,2.663-0.529l4.952,9.08C50.023,66.835,49,68.799,49,71c0,0.261,0.017,0.518,0.045,0.771  c-0.062,0.258-0.019,0.524,0.127,0.755c0.351,1.565,1.223,2.934,2.428,3.911L44.396,89.04C44.266,89.022,44.136,89,44,89  c-1.654,0-3,1.346-3,3s1.346,3,3,3s3-1.346,3-3c0-0.794-0.315-1.512-0.82-2.049l7.136-12.488c0.371,0.154,0.759,0.275,1.159,0.365  C54.637,77.93,54.814,78,55,78c0.078,0,0.153-0.026,0.229-0.045C55.482,77.983,55.739,78,56,78c3.52,0,6.433-2.613,6.92-6H73  c0,0.186,0.07,0.363,0.172,0.525c0.59,2.637,2.666,4.713,5.303,5.303C78.637,77.93,78.814,78,79,78c0.078,0,0.153-0.026,0.229-0.045  C79.482,77.983,79.739,78,80,78c3.859,0,7-3.141,7-7c0-2.193-1.016-4.152-2.6-5.437l7.203-12.604C91.734,52.978,91.864,53,92,53  c1.654,0,3-1.346,3-3S93.654,47,92,47z M44,93c-0.551,0-1-0.449-1-1s0.449-1,1-1s1,0.449,1,1S44.551,93,44,93z M80,24  c2.757,0,5,2.243,5,5c0,1.648-0.813,3.102-2.047,4.013c-0.153,0.007-0.307,0.038-0.449,0.119c-0.154,0.088-0.262,0.217-0.348,0.359  c-0.139,0.067-0.28,0.128-0.427,0.182c0.361-0.393,0.358-1-0.022-1.38c-0.391-0.391-1.023-0.391-1.414,0l-1.533,1.533  c-0.543-0.14-1.057-0.356-1.513-0.659l1.46-1.46c0.391-0.391,0.391-1.023,0-1.414s-1.023-0.391-1.414,0l-1.46,1.46  c-0.302-0.456-0.519-0.969-0.659-1.513l1.533-1.533c0.391-0.391,0.391-1.023,0-1.414c-0.381-0.381-0.988-0.384-1.381-0.022  C76.034,25.367,77.854,24,80,24z M61,29c0,2.146-1.367,3.966-3.271,4.673c0.361-0.393,0.358-1-0.022-1.38  c-0.391-0.391-1.023-0.391-1.414,0l-1.533,1.533c-0.32-0.083-0.626-0.194-0.918-0.336c-0.089-0.146-0.201-0.28-0.363-0.368  c-0.045-0.025-0.095-0.027-0.143-0.044l1.371-1.371c0.391-0.391,0.391-1.023,0-1.414s-1.023-0.391-1.414,0l-1.46,1.46  c-0.302-0.456-0.519-0.969-0.659-1.513l1.533-1.533c0.391-0.391,0.391-1.023,0-1.414c-0.381-0.381-0.988-0.384-1.381-0.022  c0.342-0.917,0.938-1.702,1.711-2.275c0.156-0.006,0.313-0.044,0.459-0.127c0.154-0.088,0.262-0.217,0.348-0.359  C54.499,24.192,55.225,24,56,24C58.757,24,61,26.243,61,29z M44,7c0.551,0,1,0.449,1,1s-0.449,1-1,1s-1-0.449-1-1S43.449,7,44,7z   M20,7c0.551,0,1,0.449,1,1s-0.449,1-1,1s-1-0.449-1-1S19.449,7,20,7z M7,29c0-0.551,0.449-1,1-1s1,0.449,1,1s-0.449,1-1,1  S7,29.551,7,29z M21.729,54.674c0.361-0.393,0.358-1-0.022-1.381c-0.391-0.391-1.023-0.391-1.414,0l-1.533,1.533  c-0.543-0.141-1.057-0.357-1.513-0.659l1.46-1.46c0.391-0.391,0.391-1.023,0-1.414s-1.023-0.391-1.414,0l-1.46,1.46  c-0.302-0.456-0.519-0.97-0.659-1.513l1.533-1.533c0.391-0.391,0.391-1.023,0-1.414c-0.381-0.381-0.988-0.384-1.38-0.022  c0.341-0.917,0.937-1.702,1.71-2.274c0.156-0.006,0.313-0.045,0.459-0.128c0.154-0.088,0.262-0.218,0.348-0.359  C18.499,45.192,19.225,45,20,45c2.757,0,5,2.243,5,5C25,52.146,23.633,53.966,21.729,54.674z M26.92,49c-0.487-3.387-3.4-6-6.92-6  c-0.951,0-1.857,0.192-2.685,0.537L10.18,31.049C10.685,30.512,11,29.794,11,29c0-0.791-0.313-1.506-0.815-2.042l9.411-15.999  C19.729,10.978,19.861,11,20,11c1.302,0,2.401-0.838,2.816-2h18.368c0.414,1.162,1.514,2,2.815,2c0.136,0,0.266-0.022,0.396-0.04  L51.6,23.563C50.016,24.848,49,26.807,49,29c0,0.261,0.017,0.517,0.045,0.771c-0.062,0.258-0.019,0.524,0.127,0.755  c0.352,1.572,1.23,2.945,2.443,3.923l-4.952,9.08C45.842,43.189,44.943,43,44,43c-3.52,0-6.433,2.613-6.92,6H26.92z M46.957,54.01  c-0.148,0.007-0.297,0.037-0.436,0.112c-0.162,0.088-0.274,0.222-0.363,0.368c-0.14,0.067-0.281,0.129-0.429,0.184  c0.361-0.393,0.358-1-0.022-1.381c-0.391-0.391-1.023-0.391-1.414,0l-1.533,1.533c-0.543-0.141-1.057-0.357-1.513-0.659l1.46-1.46  c0.391-0.391,0.391-1.023,0-1.414s-1.023-0.391-1.414,0l-1.46,1.46c-0.302-0.456-0.519-0.97-0.659-1.513l1.533-1.533  c0.391-0.391,0.391-1.023,0-1.414c-0.381-0.381-0.988-0.384-1.381-0.022C40.034,46.367,41.854,45,44,45  c0.776,0,1.502,0.193,2.158,0.51c0.089,0.146,0.201,0.28,0.363,0.368c0.141,0.077,0.292,0.112,0.442,0.118  C48.192,46.908,49,48.356,49,50C49,51.646,48.189,53.099,46.957,54.01z M57.729,75.674c0.361-0.393,0.358-1-0.022-1.381  c-0.391-0.391-1.023-0.391-1.414,0l-1.533,1.533c-0.319-0.083-0.625-0.194-0.916-0.335c-0.086-0.142-0.193-0.271-0.348-0.359  c-0.051-0.029-0.107-0.034-0.16-0.054l1.371-1.371c0.391-0.391,0.391-1.023,0-1.414s-1.023-0.391-1.414,0l-1.46,1.46  c-0.302-0.456-0.519-0.97-0.659-1.513l1.533-1.533c0.391-0.391,0.391-1.023,0-1.414c-0.381-0.381-0.988-0.384-1.381-0.022  c0.341-0.917,0.938-1.702,1.71-2.274c0.15-0.006,0.302-0.041,0.442-0.118c0.162-0.088,0.274-0.222,0.363-0.368  C54.498,66.193,55.224,66,56,66c2.757,0,5,2.243,5,5C61,73.146,59.633,74.966,57.729,75.674z M85,71  c0,2.146-1.367,3.966-3.271,4.674c0.361-0.393,0.358-1-0.022-1.381c-0.391-0.391-1.023-0.391-1.414,0l-1.533,1.533  c-0.543-0.141-1.057-0.357-1.513-0.659l1.46-1.46c0.391-0.391,0.391-1.023,0-1.414s-1.023-0.391-1.414,0l-1.46,1.46  c-0.302-0.456-0.519-0.97-0.659-1.513l1.533-1.533c0.391-0.391,0.391-1.023,0-1.414c-0.381-0.381-0.988-0.384-1.381-0.022  C76.034,67.367,77.854,66,80,66c0.775,0,1.501,0.192,2.156,0.509c0.086,0.142,0.193,0.271,0.348,0.359  c0.146,0.083,0.303,0.122,0.459,0.128C84.191,67.907,85,69.355,85,71z M80,64c-3.52,0-6.433,2.613-6.92,6H62.92  c-0.487-3.387-3.4-6-6.92-6c-0.943,0-1.842,0.189-2.663,0.529l-4.952-9.08C49.977,54.165,51,52.201,51,50s-1.023-4.165-2.615-5.449  l4.952-9.08c0.364,0.15,0.745,0.27,1.138,0.357C54.637,35.93,54.814,36,55,36c0.078,0,0.153-0.026,0.229-0.045  C55.482,35.983,55.739,36,56,36c3.52,0,6.433-2.613,6.92-6H73c0,0.186,0.07,0.363,0.172,0.526c0.59,2.636,2.666,4.712,5.303,5.302  C78.637,35.93,78.814,36,79,36c0.078,0,0.153-0.026,0.229-0.045C79.482,35.983,79.739,36,80,36c0.951,0,1.857-0.192,2.685-0.537  l7.136,12.488C89.315,48.488,89,49.206,89,50s0.315,1.512,0.82,2.049l-7.136,12.488C81.857,64.192,80.951,64,80,64z M92,51  c-0.551,0-1-0.449-1-1s0.449-1,1-1s1,0.449,1,1S92.551,51,92,51z"/><text x="0" y="115" fill="#000000" font-size="5px" font-weight="bold" font-family="'Helvetica Neue', Helvetica, Arial-Unicode, Arial, Sans-serif">Created by hunotika</text><text x="0" y="120" fill="#000000" font-size="5px" font-weight="bold" font-family="'Helvetica Neue', Helvetica, Arial-Unicode, Arial, Sans-serif">from the Noun Project</text></svg>